<?xml version="1.0" encoding="utf-8"?>
<!-- Generator: Adobe Illustrator 16.0.0, SVG Export Plug-In . SVG Version: 6.00 Build 0)  -->
<!DOCTYPE svg PUBLIC "-//W3C//DTD SVG 1.1//EN" "http://www.w3.org/Graphics/SVG/1.1/DTD/svg11.dtd">
<svg version="1.1" id="Layer_1" xmlns="http://www.w3.org/2000/svg" xmlns:xlink="http://www.w3.org/1999/xlink" x="0px" y="0px"
	 width="502.773px" height="308.087px" viewBox="0 0 502.773 308.087" enable-background="new 0 0 502.773 308.087"
	 xml:space="preserve">
<g>
	<path fill="#031F35" d="M157.143,32.301L104.607,59.88c-1.221-16.979-7.045-24.693-12.689-32.166
		c-4.1-5.425-5.961-8.688-8.455-14.867c-2.41,2.17-4.532,4.301-7.305,6.082l-0.49,0.203l0.037,0.082
		c-3.501,2.164-7.344,3.699-11.448,5.305c-7.849,3.102-16.515,6.523-25.952,14.906L7.58,0L0,5.884l33.999,43.608l3.364,4.304
		l3.848-3.913c9.541-9.747,18.535-13.299,26.586-16.468c4.33-1.705,8.434-3.304,12.342-5.646c1.32,1.97,2.709,3.844,4.115,5.687
		c5.482,7.285,11.174,14.837,11.011,34.158l-0.069,8.012l7.087-3.72l59.338-31.102L157.143,32.301z"/>
	<path fill-rule="evenodd" clip-rule="evenodd" fill="#007AFF" d="M24.791,150.319c-9.701,64.263-3.588,135.124,8.555,157.768
		l64.92-52.789c0,0-20.469-36.392-28.125-90.896L24.791,150.319z M77.604,35.896c-25.83,17.792-41.77,55.468-50.34,100.071
		l41.286,14.672C65.449,117.436,63.791,76.739,77.604,35.896z"/>
	<path fill="#031F35" d="M180.229,133.672c-7.122,7.022-16.319,10.285-26.31,10.285c-25.715,0-36.596-17.703-36.693-35.705
		c-0.1-18.1,11.67-36.497,36.693-36.497c9.396,0,18.298,3.563,25.42,10.583l-8.704,8.408c-4.55-4.451-10.683-6.528-16.716-6.528
		c-16.715,0-23.936,12.463-23.836,24.034c0.099,11.473,6.725,23.441,23.836,23.441c6.033,0,12.858-2.473,17.408-7.022
		L180.229,133.672z"/>
	<path fill="#031F35" d="M223.255,93.614h11.572v48.761h-11.374l-0.594-7.121c-2.77,5.736-10.385,8.506-15.826,8.605
		c-14.439,0.098-25.121-8.803-25.121-25.914c0-16.814,11.176-25.617,25.419-25.519c6.528,0,12.759,3.067,15.528,7.913
		L223.255,93.614z M193.979,117.945c0,9.297,6.428,14.836,14.44,14.836c18.989,0,18.989-29.573,0-29.573
		C200.406,103.208,193.979,108.648,193.979,117.945z"/>
	<path fill="#031F35" d="M256.192,93.614l0.891,5.638c3.758-6.033,8.802-6.924,13.747-6.924c5.045,0,9.892,1.979,12.562,4.649
		l-5.439,10.483c-2.473-2.076-4.747-3.164-8.704-3.164c-6.33,0-12.165,3.361-12.165,12.363v25.715h-12.067V93.614H256.192z"/>
	<path fill="#007AFF" d="M298.229,122.298c0.793,6.032,6.034,10.384,14.54,10.384c4.45,0,10.286-1.68,13.056-4.549l7.715,7.615
		c-5.144,5.342-13.551,7.913-20.969,7.913c-16.814,0-26.803-10.386-26.803-26.013c0-14.836,10.088-25.518,25.913-25.518
		c16.319,0,26.507,10.088,24.628,30.167H298.229z M324.736,112.308c-0.791-6.33-5.736-9.495-12.66-9.495
		c-6.527,0-11.869,3.165-13.648,9.495H324.736z"/>
	<path fill="#007AFF" d="M355.894,122.298c0.791,6.032,6.033,10.384,14.539,10.384c4.451,0,10.286-1.68,13.056-4.549l7.715,7.615
		c-5.144,5.342-13.55,7.913-20.969,7.913c-16.813,0-26.803-10.386-26.803-26.013c0-14.836,10.088-25.518,25.912-25.518
		c16.32,0,26.508,10.088,24.629,30.167H355.894z M382.4,112.308c-0.791-6.33-5.736-9.495-12.66-9.495
		c-6.527,0-11.869,3.165-13.648,9.495H382.4z"/>
	<path fill="#031F35" d="M414.448,93.614l0.89,5.638c3.758-6.033,8.803-6.924,13.748-6.924c5.045,0,9.891,1.979,12.562,4.649
		l-5.44,10.483c-2.473-2.076-4.747-3.164-8.703-3.164c-6.33,0-12.166,3.361-12.166,12.363v25.715h-12.066V93.614H414.448z"/>
	<path fill="#031F35" d="M165.592,198.801c-5.045-8.111-13.155-9.297-20.969-9.396c-8.111,0-20.969,2.967-20.969,14.045
		c0,8.803,9.495,10.88,21.166,13.055c13.353,2.572,27.199,4.946,27.199,19.881c-0.098,15.627-15.824,19.387-27.396,19.387
		c-10.78,0-23.045-4.451-28.387-15.035l4.748-2.373c4.252,8.406,15.133,12.561,23.639,12.561s22.057-2.373,22.057-14.638
		c0.099-10.386-11.375-12.66-22.749-14.836c-12.66-2.473-25.616-5.044-25.616-17.804c-0.297-14.637,14.935-19.188,26.309-19.188
		c9.891,0,18.496,1.582,25.32,11.77L165.592,198.801z"/>
	<path fill="#031F35" d="M188.045,185.447v29.475c3.956-7.021,10.781-9.692,17.605-9.792c13.649,0,20.474,8.803,20.474,21.563
		v27.991h-4.747v-27.991c0-10.089-4.748-16.913-15.727-16.913c-10.287,0-17.407,7.912-17.407,18.1v26.805h-4.847v-69.236H188.045z"
		/>
	<path fill="#031F35" d="M245.215,189.898c0,5.144-7.813,5.144-7.813,0C237.402,184.756,245.215,184.756,245.215,189.898z
		 M238.786,205.625v49.059h4.847v-49.059H238.786z"/>
	<path fill="#031F35" d="M262.227,185.447v41.739l23.046-21.364h6.429v0.197l-24.727,22.848l27.595,25.519v0.298h-6.132
		l-26.211-23.937v23.937h-4.747v-69.236H262.227z"/>
	<path fill="#031F35" d="M334.331,214.725c-4.946-4.352-9.792-5.145-15.231-5.145c-7.616-0.098-14.936,2.771-14.738,9.002
		c0.198,6.527,8.705,7.813,14.837,8.901c8.704,1.483,20.671,2.967,20.177,14.341c-0.297,10.781-11.473,13.65-20.078,13.65
		s-17.111-3.265-21.363-9.793l3.561-3.164c4.055,5.835,11.373,8.308,17.902,8.308c5.934,0,14.935-1.583,15.23-9.298
		c0.199-7.021-7.912-8.406-15.923-9.691c-9.495-1.584-18.892-3.363-18.991-13.156c-0.099-9.594,9.496-13.747,19.387-13.648
		c7.12,0,13.352,1.979,18.199,6.527L334.331,214.725z"/>
	<path fill="#031F35" d="M354.807,185.447v29.475c3.955-7.021,10.78-9.692,17.605-9.792c13.648,0,20.473,8.803,20.473,21.563v27.991
		h-4.747v-27.991c0-10.089-4.747-16.913-15.726-16.913c-10.287,0-17.408,7.912-17.408,18.1v26.805h-4.846v-69.236H354.807z"/>
	<path fill="#031F35" d="M452.528,205.822c0,16.32,0,32.541,0,48.861h-4.847v-10.387c-4.748,7.616-12.066,11.178-19.979,11.178
		c-13.649,0-24.825-10.287-24.825-25.223c0-14.934,11.176-25.022,24.825-25.022c7.913,0,15.925,3.659,19.979,11.274v-10.682H452.528
		z M407.723,230.252c0,12.266,8.902,20.475,19.979,20.475c27.2,0,27.2-40.849,0-40.849
		C416.625,209.878,407.723,217.988,407.723,230.252z"/>
	<path fill="#031F35" d="M470.431,185.447v41.739l23.046-21.364h6.429v0.197l-24.727,22.848l27.595,25.519v0.298h-6.132
		l-26.211-23.937v23.937h-4.747v-69.236H470.431z"/>
</g>
</svg>
